<svg xmlns="http://www.w3.org/2000/svg" viewBox="0 0 461.82 140.89"><defs><style>.a{isolation:isolate;}.b{fill:#d6e7b2;mix-blend-mode:multiply;}.c{fill:#654d53;}</style></defs><title>logo-horizontal</title><g class="a"><rect class="b" x="33.15" y="69.34" width="110.98" height="3.6" transform="translate(-12.19 123.59) rotate(-66.23)"/><rect class="b" x="53.81" y="52.11" width="3.6" height="85.53" transform="translate(-47.42 56.42) rotate(-39.16)"/><path class="b" d="M131.08,93.65a53.15,53.15,0,0,1-46-79.81l3.11,1.81A49.55,49.55,0,0,0,131.08,90c1.21,0,2.43,0,3.63-.13L135,93.51C133.69,93.6,132.38,93.65,131.08,93.65Z"/><path class="b" d="M136,87.8a84.57,84.57,0,0,0-9.31-16.11A84.11,84.11,0,0,0,37,40.27l-0.45-1.66a85.94,85.94,0,0,1,101,48.5Z"/><path class="c" d="M38.44,102.42l-5.36-2.08A88,88,0,0,1,134.29,46.41L133,52A82.55,82.55,0,0,0,115,50,82.1,82.1,0,0,0,38.44,102.42Z"/><path class="c" d="M38.72,103.07l-6.29-2.44,0.18-.47A88.45,88.45,0,0,1,134.4,45.92L134.89,46l-1.48,6.58-0.49-.11a82.06,82.06,0,0,0-17.95-2A81.6,81.6,0,0,0,38.9,102.61Zm-5-3,4.42,1.72a82.7,82.7,0,0,1,94.5-50.36l1-4.63a87.83,87.83,0,0,0-18.71-2A87.34,87.34,0,0,0,33.73,100.06Z"/><path class="b" d="M58.53,121.52l-2.07.4a52.87,52.87,0,0,1,82.81-52.79L138,70.84A50.76,50.76,0,0,0,58.53,121.52Z"/><path class="c" d="M69.46,64.32L52.67,23.61l-6.24,2.57,8.48,20.56-30.4,73c-0.77,1.87-2,2.2-4.36,2.2h-1.9v5.57h2c6.62,0,8.55-1.23,10.88-6.94l23-55.3c0.07-.16,1.64-4,1.83-4.55,0.14-.37,1.25-3.6,2-5.85l0.14-.43,2.75,6.66,3,7.32A68,68,0,0,1,69.46,64.32Z"/><path class="c" d="M96.48,122c-1.76,0-2.9-.19-3.68-1.07L70.61,67.12c-1.67,1.24-3.83,2.91-5.48,4.41L66.58,75l0.59,1.43,20.09,48.7,0.6-.25c1.75,2.06,4.08,2.62,8.49,2.62h2V122h-1.9Z"/><path class="b" d="M46,113.85l-2.3-2.77a72.87,72.87,0,0,1,80.66-8.2l-1.69,3.18A69.27,69.27,0,0,0,46,113.85Z"/><path class="c" d="M82.62,10.69A59.73,59.73,0,0,0,29.95,98.63l4.16-9.91a51.87,51.87,0,1,1,1.69,4L31.91,102A59.74,59.74,0,1,0,82.62,10.69Z"/><path class="c" d="M221.91,65.13a1.23,1.23,0,0,0-1.35-1.35H218V60.14h4.31c2.59,0,3.76,1,3.76,3.51v2.09a22.34,22.34,0,0,1-.12,2.34H226c1.48-4.68,4.93-8.25,9.79-8.25a8.37,8.37,0,0,1,1.66.18v4.12a10.6,10.6,0,0,0-1.54-.12c-4.37,0-7.63,3.45-9,8a20.43,20.43,0,0,0-.86,6V91.11h-4.19v-26Z"/><path class="c" d="M258.23,72H260V71.65c0-6.46-2.34-8.74-8-8.74-1.54,0-6,.43-6,2.71v2h-4v-3c0-4.31,7.39-5.23,10.1-5.23,9.79,0,12.13,5.23,12.13,11.88V86.12a1.21,1.21,0,0,0,1.35,1.35h2.59v3.63h-4.25c-2.65,0-3.69-1.17-3.69-3.69,0-1.35.06-2.28,0.06-2.28h-0.12a11,11,0,0,1-10.28,6.71c-5.17,0-10.53-3-10.53-9.17C239.27,72.39,252.87,72,258.23,72Zm-7.76,16.25c5.91,0,9.48-6.16,9.48-11.51V75.35h-1.79c-4.86,0-14.59.12-14.59,7.08C243.58,85.32,245.86,88.28,250.47,88.28Z"/><path class="c" d="M288.15,59.4c3.51,0,11,1.48,11,6.59v2.77h-3.94V67c0-2.59-4.49-3.82-7.08-3.82-6.65,0-12,5-12,12.5S281.75,88,288.27,88a13.7,13.7,0,0,0,10-4.37l2,3.14a16.35,16.35,0,0,1-12.13,5c-9.24,0-16.25-6.59-16.25-16.19S278.92,59.4,288.15,59.4Z"/><path class="c" d="M306.87,52.81a1.23,1.23,0,0,0-1.35-1.35h-2.59V47.83h4.37c2.65,0,3.76,1.11,3.76,3.63V64.57c0,1.42-.12,2.52-0.12,2.52h0.12a13.24,13.24,0,0,1,12.25-7.7c7.7,0,10.4,4.37,10.4,12V86.12a1.21,1.21,0,0,0,1.35,1.35h2.59v3.63h-4.37c-2.65,0-3.76-1.11-3.76-3.76V72.52c0-4.86-.74-9.17-6.77-9.17a11.74,11.74,0,0,0-11.21,8.8,14.58,14.58,0,0,0-.49,4.12V91.11h-4.19V52.81Z"/><path class="c" d="M344.3,65.13a1.23,1.23,0,0,0-1.35-1.35h-2.59V60.14h4.31c2.59,0,3.76,1.11,3.76,3.45V65a19.92,19.92,0,0,1-.12,2.22h0.12a13.15,13.15,0,0,1,12.31-7.82c7.7,0,10.4,4.37,10.4,12V86.12a1.21,1.21,0,0,0,1.35,1.35h2.59v3.63h-4.37c-2.65,0-3.76-1.11-3.76-3.76V72.52c0-4.86-.74-9.17-6.71-9.17A11.77,11.77,0,0,0,349,72.08a15.31,15.31,0,0,0-.49,4.19V91.11H344.3v-26Z"/><path class="c" d="M394.1,59.4c8.56,0,13,6.59,13,14.28,0,0.74-.12,2.09-0.12,2.09H383.21c0.12,7.82,5.6,12.31,12,12.31a13.8,13.8,0,0,0,9.3-3.82l2,3.14A17.57,17.57,0,0,1,395,91.85c-9.17,0-16.19-6.65-16.19-16.19C378.84,65.5,385.79,59.4,394.1,59.4Zm8.68,13.05c-0.25-6.4-4.19-9.54-8.74-9.54-5.11,0-9.6,3.32-10.65,9.54h19.39Z"/><path class="c" d="M214.14,86.93c-1.26,0-1.54-.19-1.8-0.82L203.8,65.55c-1.36.62-2.82,1.42-4.13,2.12l8,19.34c1.34,3.29,2.6,4.1,6.39,4.1h1.68V86.93h-1.61Z"/><path class="c" d="M195.9,66.84a46.49,46.49,0,0,1,7-3.53l-7-16.93h-4.36L174.91,86.11c-0.25.62-.54,0.82-1.8,0.82h-1.61v4.18h1.68c3.79,0,5.05-.8,6.39-4.09l0.54-1.29,0.08,0A39.59,39.59,0,0,1,195.9,66.85h0Zm-8.07.32,4.1-9.87s0.89-2.17,1-2.47,0.37-1.05.69-2l0.49,1.39c0.06,0.17,1.45,3.53,2.8,6.81A39.52,39.52,0,0,0,187.83,67.16Z"/></g></svg>